<svg xmlns="http://www.w3.org/2000/svg" width='200' height='200'    version="1.2"  viewBox="0 0 375 375"  >
  <defs>
    <clipPath id="a">
      <path d="M179.031 175.203H204v25.242h-24.969Zm0 0"/>
    </clipPath>
  </defs>
  <g style="fill:#fff;fill-opacity:1">
    <path d="M26.281.547c-3.086 0-6-.664-8.75-2-2.75-1.344-5.199-3.25-7.343-5.719-2.137-2.476-3.82-5.426-5.047-8.844-1.23-3.425-1.844-7.25-1.844-11.468 0-4.22.613-8.036 1.844-11.453 1.226-3.426 2.91-6.376 5.046-8.844 2.145-2.477 4.594-4.383 7.344-5.719a19.666 19.666 0 0 1 8.75-2.016c3.07 0 5.985.672 8.735 2.016 2.75 1.336 5.191 3.242 7.328 5.719 2.144 2.468 3.832 5.418 5.062 8.843 1.227 3.418 1.844 7.235 1.844 11.454 0 4.218-.617 8.043-1.844 11.468-1.23 3.418-2.918 6.368-5.062 8.844-2.137 2.469-4.578 4.375-7.328 5.719a19.74 19.74 0 0 1-8.735 2ZM7.313-27.422c0 4.18.492 7.934 1.484 11.266.988 3.336 2.363 6.183 4.125 8.547 1.758 2.367 3.781 4.171 6.062 5.421a15.073 15.073 0 0 0 7.297 1.86c2.594 0 5.024-.617 7.297-1.86 2.281-1.25 4.297-3.054 6.047-5.421 1.758-2.364 3.133-5.211 4.125-8.547.988-3.332 1.484-7.086 1.484-11.266 0-4.187-.496-7.945-1.484-11.281-.992-3.332-2.367-6.188-4.125-8.563-1.75-2.382-3.766-4.207-6.047-5.468a14.726 14.726 0 0 0-7.297-1.907c-2.574 0-5.008.637-7.297 1.907-2.28 1.261-4.304 3.086-6.062 5.468-1.762 2.375-3.137 5.23-4.125 8.563-.992 3.336-1.485 7.094-1.485 11.281Zm0 0" style="stroke:none" transform="translate(38.144 204.75)"/>
  </g>
  <g style="fill:#fff;fill-opacity:1">
    <path d="M13.078-29.297V-30.5a44.962 44.962 0 0 1 3.328-2.016c1.227-.675 2.594-1.242 4.094-1.703 1.5-.457 3.164-.687 5-.687 2.094 0 4.02.37 5.781 1.11 1.758.73 3.176 1.843 4.25 3.343 1.082 1.5 1.625 3.406 1.625 5.719v19.562c0 .45.07.809.219 1.078.145.274.398.407.766.407.593 0 1.265-.29 2.015-.876a95.248 95.248 0 0 0 2-1.593v1.312c-2.449 1.762-4.25 3.102-5.406 4.016C35.594.086 34.723.547 34.14.547c-.367 0-.593-.133-.687-.39-.094-.25-.14-.688-.14-1.313v-24.125c0-1.832-.266-3.317-.797-4.453-.532-1.133-1.22-2.004-2.063-2.61a7.492 7.492 0 0 0-2.75-1.234 12.853 12.853 0 0 0-2.86-.344c-1.616 0-3.155.25-4.624.75a20.706 20.706 0 0 0-4 1.813 36.684 36.684 0 0 0-3.14 2.062ZM16.766 0H1.922v-1.422l5.5.594v-29.406c0-1.094-.184-1.907-.547-2.438-.367-.531-.992-.797-1.875-.797-.438 0-.96.047-1.563.14-.605.087-1.109.22-1.515.407v-1.437h9.344v30.234c0 1.105.18 1.922.546 2.453.376.531 1 .797 1.876.797.437 0 .968-.047 1.593-.14.625-.094 1.117-.227 1.485-.407Zm0 0" style="stroke:none" transform="translate(87.509 204.75)"/>
  </g>
  <g style="fill:#fff;fill-opacity:1">
    <path d="M20.344.547c-3.637 0-6.746-.797-9.328-2.39C8.43-3.439 6.453-5.579 5.078-8.267c-1.375-2.695-2.062-5.675-2.062-8.937 0-3.258.687-6.227 2.062-8.906 1.375-2.676 3.352-4.813 5.938-6.407 2.582-1.593 5.691-2.39 9.328-2.39 2.75 0 5.101.406 7.062 1.218 1.957.805 3.555 1.856 4.797 3.157 1.25 1.304 2.164 2.703 2.75 4.203.594 1.5.89 2.93.89 4.281 0 1.469-.277 2.649-.827 3.531-.555.875-1.227 1.543-2.016 2a7.687 7.687 0 0 1-2.39.938c-.805.156-1.481.234-2.032.234H8.953v-.922H24.47s.234-.007.703-.03c.476-.02 1.082-.114 1.812-.282a7.48 7.48 0 0 0 2.172-.875c.719-.414 1.313-1.047 1.782-1.89.476-.845.718-1.942.718-3.298 0-1.132-.183-2.363-.547-3.687a11.38 11.38 0 0 0-1.843-3.735c-.856-1.175-2.008-2.128-3.453-2.859-1.45-.738-3.274-1.11-5.47-1.11-2.898 0-5.335.759-7.312 2.266-1.98 1.5-3.476 3.516-4.484 6.047-1.012 2.524-1.516 5.36-1.516 8.516 0 3.117.504 5.953 1.516 8.515 1.008 2.563 2.504 4.602 4.484 6.11 1.977 1.5 4.414 2.25 7.313 2.25 3.07 0 5.789-.805 8.156-2.422 2.363-1.613 4.004-3.797 4.922-6.547l1.766.781c-1.368 2.594-3.266 4.758-5.704 6.485C27.047-.312 24 .547 20.344.547Zm0 0" style="stroke:none" transform="translate(127.858 204.75)"/>
  </g>
  <g style="fill:#fff;fill-opacity:1">
    <path d="M30.39-54.094c-.511 0-.98.059-1.406.172-.418.106-.734.195-.953.266v-1.313h25.407v1.313c-.157-.032-.715-.063-1.672-.094-.95-.04-2.11-.078-3.485-.11-1.367-.038-2.758-.078-4.172-.109-1.406-.039-2.64-.07-3.703-.093-1.062-.02-1.761-.032-2.093-.032h-1.641L58.375 0h-3.844L34.188-50.797c-.438-.945-.922-1.734-1.454-2.36-.53-.624-1.312-.937-2.343-.937ZM0-53.656v-1.313h14.406v1.313c-.336-.07-.906-.16-1.719-.266a17.231 17.231 0 0 0-2.406-.172H8.625L30.344 0H26.5L6.156-50.797c-.437-.945-.922-1.734-1.453-2.36-.531-.624-1.312-.937-2.344-.937-.511 0-.98.059-1.406.172-.418.106-.734.195-.953.266ZM57.828-7.203l-.766-.328 15.391-43.266c.25-.844.192-1.5-.172-1.969-.367-.476-.886-.816-1.562-1.015a7.045 7.045 0 0 0-2.063-.313c-.511 0-.98.059-1.406.172-.418.106-.734.195-.953.266v-1.313h14.39v1.313c-.292-.07-.824-.16-1.593-.266a15.595 15.595 0 0 0-2.297-.172ZM29.36-7.531l8.625-24.078h1.985L30.125-7.203Zm0 0" style="stroke:none" transform="translate(163.535 204.75)"/>
  </g>
  <g style="fill:#fff;fill-opacity:1">
    <path d="M20.344.547c-3.637 0-6.746-.797-9.328-2.39C8.43-3.439 6.453-5.579 5.078-8.267c-1.375-2.695-2.062-5.675-2.062-8.937 0-3.258.687-6.227 2.062-8.906 1.375-2.676 3.352-4.813 5.938-6.407 2.582-1.593 5.691-2.39 9.328-2.39 2.75 0 5.101.406 7.062 1.218 1.957.805 3.555 1.856 4.797 3.157 1.25 1.304 2.164 2.703 2.75 4.203.594 1.5.89 2.93.89 4.281 0 1.469-.277 2.649-.827 3.531-.555.875-1.227 1.543-2.016 2a7.687 7.687 0 0 1-2.39.938c-.805.156-1.481.234-2.032.234H8.953v-.922H24.47s.234-.007.703-.03c.476-.02 1.082-.114 1.812-.282a7.48 7.48 0 0 0 2.172-.875c.719-.414 1.313-1.047 1.782-1.89.476-.845.718-1.942.718-3.298 0-1.132-.183-2.363-.547-3.687a11.38 11.38 0 0 0-1.843-3.735c-.856-1.175-2.008-2.128-3.453-2.859-1.45-.738-3.274-1.11-5.47-1.11-2.898 0-5.335.759-7.312 2.266-1.98 1.5-3.476 3.516-4.484 6.047-1.012 2.524-1.516 5.36-1.516 8.516 0 3.117.504 5.953 1.516 8.515 1.008 2.563 2.504 4.602 4.484 6.11 1.977 1.5 4.414 2.25 7.313 2.25 3.07 0 5.789-.805 8.156-2.422 2.363-1.613 4.004-3.797 4.922-6.547l1.766.781c-1.368 2.594-3.266 4.758-5.704 6.485C27.047-.312 24 .547 20.344.547Zm0 0" style="stroke:none" transform="translate(241.045 204.75)"/>
  </g>
  <g style="fill:#fff;fill-opacity:1">
    <path d="M13.86.547C11.91.547 10.11.16 8.452-.61 6.805-1.38 5.488-2.551 4.5-4.125c-.992-1.57-1.484-3.586-1.484-6.047 0-2.969.75-5.555 2.25-7.765 1.507-2.22 3.566-3.942 6.171-5.172 2.602-1.227 5.551-1.844 8.844-1.844 1.207 0 2.426.094 3.657.281 1.226.18 2.503.559 3.828 1.14l-.563.891c-.918-.52-1.98-.89-3.187-1.109a19.193 19.193 0 0 0-3.407-.328c-2.605 0-4.922.617-6.953 1.844a13.55 13.55 0 0 0-4.812 4.922c-1.168 2.054-1.75 4.289-1.75 6.703 0 2.125.46 3.867 1.39 5.218.938 1.356 2.18 2.356 3.735 3 1.562.649 3.242.97 5.047.97 2.3 0 4.265-.54 5.89-1.626 1.633-1.082 2.961-2.531 3.985-4.344 1.03-1.812 1.773-3.843 2.234-6.093.457-2.258.688-4.547.688-6.86 0-1.601-.215-3.21-.641-4.828a14.348 14.348 0 0 0-1.969-4.422 10.228 10.228 0 0 0-3.437-3.218c-1.387-.813-3.055-1.22-5-1.22-1.72 0-3.305.278-4.75.829a17.348 17.348 0 0 0-3.938 2.094 22.958 22.958 0 0 0-3.078 2.64 56.688 56.688 0 0 0-2.188 2.407v-5.375c.688-.477 1.696-.985 3.032-1.516 1.344-.531 2.93-.988 4.765-1.375a28.437 28.437 0 0 1 5.829-.578c3.007 0 5.664.531 7.968 1.593 2.313 1.063 4.125 2.657 5.438 4.782 1.32 2.125 1.984 4.781 1.984 7.968 0 2.418-.484 4.868-1.453 7.344-.969 2.469-2.355 4.742-4.156 6.813a21.344 21.344 0 0 1-6.407 5.031C19.595-.094 16.86.547 13.86.547ZM37.874 0h-7.75v-6.156c.988 1.793 2.172 3.12 3.547 3.984 1.375.867 2.773 1.297 4.203 1.297Zm0 0" style="stroke:none" transform="translate(276.722 204.75)"/>
  </g>
  <g style="fill:#fff;fill-opacity:1">
    <path d="M1.922 0v-1.422l5.5.594v-29.406c0-1.094-.184-1.907-.547-2.438-.367-.531-.992-.797-1.875-.797-.438 0-.96.047-1.563.14-.605.087-1.109.22-1.515.407v-1.437h9.344v30.234c0 1.105.18 1.922.546 2.453.376.531 1 .797 1.876.797.437 0 .968-.047 1.593-.14.625-.094 1.117-.227 1.485-.407V0Zm11.265-28.094-.765-.703c.695-.77 1.613-1.629 2.75-2.578 1.133-.957 2.57-1.785 4.312-2.484 1.739-.696 3.836-1.047 6.297-1.047 1.02 0 1.977.047 2.875.14.907.094 1.64.188 2.203.282.57.086.86.125.86.125v6.875c-.219-.438-.668-1.04-1.344-1.813-.68-.77-1.605-1.469-2.781-2.094-1.18-.625-2.606-.937-4.282-.937-2.023 0-3.671.242-4.953.719-1.28.48-2.32 1.054-3.109 1.718a71.408 71.408 0 0 0-2.063 1.797Zm0 0" style="stroke:none" transform="translate(311.959 204.75)"/>
  </g>
  <g clip-path="url(#a)">
    <path d="M203.89 187.633c-9.324 1.715-10.714 3.11-12.43 12.43-1.714-9.32-3.108-10.715-12.429-12.43 9.32-1.715 10.715-3.106 12.43-12.43 1.715 9.324 3.105 10.715 12.43 12.43Zm0 0" style="stroke:none;fill-rule:nonzero;fill:#fff;fill-opacity:1"/>
  </g>
</svg>
